<?xml version="1.0" encoding="UTF-8" standalone="no"?>
<!-- Created with Inkscape (http://www.inkscape.org/) -->

<svg
   width="64"
   height="64"
   viewBox="0 0 16.933333 16.933334"
   version="1.1"
   id="svg5"
   sodipodi:docname="hollow-plus-black.svg"
   inkscape:version="1.1.2 (0a00cf5339, 2022-02-04)"
   xmlns:inkscape="http://www.inkscape.org/namespaces/inkscape"
   xmlns:sodipodi="http://sodipodi.sourceforge.net/DTD/sodipodi-0.dtd"
   xmlns="http://www.w3.org/2000/svg"
   xmlns:svg="http://www.w3.org/2000/svg">
  <sodipodi:namedview
     id="namedview7"
     pagecolor="#ffffff"
     bordercolor="#000000"
     borderopacity="0.25"
     inkscape:pageshadow="2"
     inkscape:pageopacity="0.0"
     inkscape:pagecheckerboard="0"
     inkscape:document-units="px"
     showgrid="true"
     units="px"
     width="64px"
     inkscape:zoom="6.8032243"
     inkscape:cx="23.812238"
     inkscape:cy="41.303945"
     inkscape:window-width="1850"
     inkscape:window-height="909"
     inkscape:window-x="0"
     inkscape:window-y="0"
     inkscape:window-maximized="1"
     inkscape:current-layer="layer1">
    <inkscape:grid
       type="xygrid"
       id="grid9"
       spacingx="1.0583333"
       spacingy="1.0583333"
       empspacing="4" />
  </sodipodi:namedview>
  <defs
     id="defs2" />
  <g
     inkscape:label="Layer 1"
     inkscape:groupmode="layer"
     id="layer1">
    <path
       id="path33"
       style="fill:#000000;stroke-width:0.999999"
       d="M 32 0 A 31.999998 31.999998 0 0 0 0 32 A 31.999998 31.999998 0 0 0 32 64 A 31.999998 31.999998 0 0 0 64 32 A 31.999998 31.999998 0 0 0 32 0 z M 28 8 L 36 8 L 36 28 L 56 28 L 56 36 L 36 36 L 36 56 L 28 56 L 28 36 L 8 36 L 8 28 L 28 28 L 28 8 z "
       transform="scale(0.26458334)" />
  </g>
</svg>
