<?xml version="1.0" encoding="UTF-8" standalone="no"?>
<!-- Uploaded to: SVG Repo, www.svgrepo.com, Generator: SVG Repo Mixer Tools -->

<svg
   fill="#000000"
   height="800px"
   width="800px"
   version="1.1"
   id="Capa_1"
   viewBox="0 0 490.4 490.4"
   xml:space="preserve"
   sodipodi:docname="magnifying-glass-white.svg"
   inkscape:version="1.2.2 (732a01da63, 2022-12-09, custom)"
   xmlns:inkscape="http://www.inkscape.org/namespaces/inkscape"
   xmlns:sodipodi="http://sodipodi.sourceforge.net/DTD/sodipodi-0.dtd"
   xmlns="http://www.w3.org/2000/svg"
   xmlns:svg="http://www.w3.org/2000/svg"><defs
   id="defs2033" /><sodipodi:namedview
   id="namedview2031"
   pagecolor="#ffffff"
   bordercolor="#000000"
   borderopacity="0.25"
   inkscape:showpageshadow="2"
   inkscape:pageopacity="0.0"
   inkscape:pagecheckerboard="0"
   inkscape:deskcolor="#d1d1d1"
   showgrid="false"
   inkscape:zoom="0.985"
   inkscape:cx="400.50761"
   inkscape:cy="400.50761"
   inkscape:window-width="1850"
   inkscape:window-height="1016"
   inkscape:window-x="0"
   inkscape:window-y="0"
   inkscape:window-maximized="1"
   inkscape:current-layer="Capa_1" />
<g
   id="g2028">
	<path
   d="M484.1,454.796l-110.5-110.6c29.8-36.3,47.6-82.8,47.6-133.4c0-116.3-94.3-210.6-210.6-210.6S0,94.496,0,210.796   s94.3,210.6,210.6,210.6c50.8,0,97.4-18,133.8-48l110.5,110.5c12.9,11.8,25,4.2,29.2,0C492.5,475.596,492.5,463.096,484.1,454.796z    M41.1,210.796c0-93.6,75.9-169.5,169.5-169.5s169.6,75.9,169.6,169.5s-75.9,169.5-169.5,169.5S41.1,304.396,41.1,210.796z"
   id="path2026"
   style="fill:#ffffff" />
</g>
</svg>
