<?xml version="1.0" encoding="UTF-8" standalone="no"?>
<svg
   id="Layer_9"
   viewBox="0 0 1355.16 919.69999"
   version="1.1"
   sodipodi:docname="Furfolio 1 colour transparent.svg"
   width="1355.16"
   height="919.70001"
   inkscape:version="1.2.2 (732a01da63, 2022-12-09, custom)"
   xmlns:inkscape="http://www.inkscape.org/namespaces/inkscape"
   xmlns:sodipodi="http://sodipodi.sourceforge.net/DTD/sodipodi-0.dtd"
   xmlns="http://www.w3.org/2000/svg"
   xmlns:svg="http://www.w3.org/2000/svg">
  <sodipodi:namedview
     id="namedview290"
     pagecolor="#ffffff"
     bordercolor="#000000"
     borderopacity="0.25"
     inkscape:showpageshadow="2"
     inkscape:pageopacity="0.0"
     inkscape:pagecheckerboard="0"
     inkscape:deskcolor="#d1d1d1"
     showgrid="false"
     inkscape:zoom="0.51261894"
     inkscape:cx="1589.8749"
     inkscape:cy="668.13762"
     inkscape:window-width="1920"
     inkscape:window-height="1016"
     inkscape:window-x="0"
     inkscape:window-y="0"
     inkscape:window-maximized="1"
     inkscape:current-layer="Layer_9" />
  <defs
     id="defs279">
    <style
       id="style277">.cls-1{fill:#f44937;}.cls-2{fill:#0a1a2d;}</style>
  </defs>
  <path
     class="cls-1"
     d="M 789.94,0 0.93,455.53 551.19,773.22 1340.2,317.69 Z M 849.61,455.53 730.24,524.46 551.19,421.07 372.13,524.46 252.77,455.54 789.92,145.4 1088.35,317.7 968.98,386.62 789.94,283.24 670.57,352.16 Z"
     id="path281" />
  <path
     class="cls-2"
     d="M 0.01,0 V 410.92 L 711.74,0 Z m 173.29,173.79 -59.68,34.46 v 60.81 c 0,0 -28.06,0 -28.06,0 v -77.01 c 0,0 59.69,-34.46 59.69,-34.46 V 88.67 l 66.69,-38.52 14.03,24.3 -52.66,30.41 v 68.92 z"
     id="path283" />
  <path
     class="cls-2"
     d="m 868.14,0 473,273.09 V 0 Z m 385.25,162.63 v -26.36 c 0,0 -29.85,-17.23 -29.85,-17.23 V 84.58 l -22.82,-13.18 14.03,-24.3 36.85,21.28 v 34.46 l 29.84,17.23 v 42.55 c 0,0 -28.05,0 -28.05,0 z"
     id="path285" />
  <polygon
     class="cls-2"
     points="1681.72,2168.48 933.87,2600.24 410.74,2298.22 410.74,2261.7 516.08,2322.52 516.08,2290.11 382.69,2213.1 382.68,2314.42 933.87,2632.65 1737.84,2168.48 1650.09,2117.82 1650.09,2150.22 "
     id="polygon287"
     transform="translate(-382.68,-1712.95)" />
</svg>
